# xmcd
#
# Track frame offsets:
#	150
#	13252
#	23177
#	31732
#	39447
#	48665
#	57245
#	68905
#	85925
#	96610
#	113027
#	120830
#	132225
#	141527
#	150722
#	155402
#	163715
#	176397
#	188737
#	196865
#
# Disc length: 2880 seconds
#
# Revision: 1
# Processed by: cddbd v1.5PL3 Copyright (c) Steve Scherf et al.
# Submitted via: CDex 1.50Beta5
#
DISCID=0d0b3e14
DTITLE=Various Artist - 教科書から消えた唱歌・童謡
DYEAR=1900
DGENRE=Children's Music -> General Children's Music
TTITLE0=この道
TTITLE1=待ちぼうけ
TTITLE2=かなりや
TTITLE3=靴が鳴る
TTITLE4=背くらべ
TTITLE5=十五夜お月さん
TTITLE6=浜千鳥
TTITLE7=月の砂漠
TTITLE8=野菊
TTITLE9=雪の降る町を
TTITLE10=メダカの学校
TTITLE11=夏は来ぬ
TTITLE12=村の鍛冶屋
TTITLE13=村祭
TTITLE14=汽車
TTITLE15=桃太郎
TTITLE16=埴生の宿
TTITLE17=赤い靴
TTITLE18=てるてる坊主
TTITLE19=われは海の子
EXTD=
EXTT0=
EXTT1=
EXTT2=
EXTT3=
EXTT4=
EXTT5=
EXTT6=
EXTT7=
EXTT8=
EXTT9=
EXTT10=
EXTT11=
EXTT12=
EXTT13=
EXTT14=
EXTT15=
EXTT16=
EXTT17=
EXTT18=
EXTT19=
PLAYORDER=
